# xmcd
#
# Track frame offsets: 
#        150
#        20365
#        51082
#        70687
#        90320
#        112700
#        125090
#        143220
#
# Disc length: 2318 seconds
#
# Revision: 0
# Processed by: cddbd v1.5.2PL0 Copyright (c) Steve Scherf et al.
# Submitted via: ExactAudioCopy v1.0b3
#
DISCID=60090c08
DTITLE=Sherwin Linton - This Is My Story
DYEAR=2001
DGENRE=Country
TTITLE0=Church In The Wildwood
TTITLE1=What A Friend We Have In Jesus
TTITLE2=The Old Rugged Cross
TTITLE3=Love Lifted Me
TTITLE4=In The Garden
TTITLE5=When The Roll Is Called Up Yonder
TTITLE6=Rock Of The Ages
TTITLE7=Blessed Assurance
EXTD=
EXTT0=
EXTT1=
EXTT2=
EXTT3=
EXTT4=
EXTT5=
EXTT6=
EXTT7=
PLAYORDER=
